<svg width="41" height="43" viewBox="0 0 41 43" fill="none" xmlns="http://www.w3.org/2000/svg">
<path d="M20.3004 11.0383C19.7398 11.0383 19.2695 11.24 18.8896 11.6434C18.5111 12.0453 18.3218 12.5439 18.3218 13.1392V19.4418H12.3367C11.7761 19.4418 11.3144 19.6435 10.9517 20.0468C10.5889 20.4488 10.4076 20.9474 10.4076 21.5426C10.4076 22.1379 10.5975 22.6372 10.9774 23.0406C11.3559 23.4425 11.8255 23.6435 12.3861 23.6435H18.3218L18.3218 29.9986C18.3218 30.5939 18.5111 31.0841 18.8896 31.4692C19.2695 31.8544 19.7398 32.047 20.3004 32.047C20.8609 32.047 21.3305 31.846 21.7091 31.444C22.089 31.0406 22.2789 30.5413 22.2789 29.9461L22.2789 23.6435L28.2641 23.6435C28.8246 23.6435 29.2863 23.4425 29.649 23.0406C30.0118 22.6372 30.1931 22.1379 30.1931 21.5426C30.1931 20.9474 30.0039 20.4488 29.6253 20.0468C29.2454 19.6435 28.7752 19.4418 28.2146 19.4418L22.2789 19.4418V13.0867C22.2789 12.4914 22.089 12.0012 21.7091 11.6161C21.3305 11.2309 20.8609 11.0383 20.3004 11.0383ZM20.3004 0.534004C23.0374 0.534004 25.6095 1.08583 28.0167 2.18949C30.424 3.29174 32.518 4.78825 34.2987 6.67903C36.0794 8.56981 37.4887 10.7932 38.5268 13.3493C39.5662 15.9053 40.0859 18.6364 40.0859 21.5426C40.0859 24.4488 39.5662 27.18 38.5268 29.736C37.4887 32.2921 36.0794 34.5155 34.2987 36.4062C32.518 38.297 30.424 39.7942 28.0167 40.8979C25.6095 42.0001 23.0374 42.5513 20.3004 42.5513C17.5633 42.5513 14.9912 42.0001 12.584 40.8979C10.1767 39.7942 8.08275 38.297 6.30205 36.4062C4.52135 34.5155 3.11195 32.2921 2.07387 29.736C1.03447 27.18 0.514767 24.4488 0.514767 21.5426C0.514767 18.6364 1.03447 15.9053 2.07387 13.3493C3.11195 10.7932 4.52135 8.56981 6.30205 6.67903C8.08275 4.78825 10.1767 3.29174 12.584 2.18949C14.9912 1.08583 17.5633 0.534004 20.3004 0.534004Z" fill="white"/>
</svg>
