<svg width="656" height="647" viewBox="0 0 656 647" fill="none" xmlns="http://www.w3.org/2000/svg">
<path d="M656 568.574H0L0 569.008H656V568.574Z" fill="#EBEBEB"/>
<path d="M146.498 583.144H103.044V583.578H146.498V583.144Z" fill="#EBEBEB"/>
<path d="M214.512 595.665H174.929V596.099H214.512V595.665Z" fill="#EBEBEB"/>
<path d="M124.771 599.26H74.5872V599.694H124.771V599.26Z" fill="#EBEBEB"/>
<path d="M590.269 598.322H569.408V598.756H590.269V598.322Z" fill="#EBEBEB"/>
<path d="M565.197 598.322H513.609V598.756H565.197V598.322Z" fill="#EBEBEB"/>
<path d="M367.793 582.918H328V583.352H367.793V582.918Z" fill="#EBEBEB"/>
<path d="M468.082 582.918H373.487V583.352H468.082V582.918Z" fill="#EBEBEB"/>
<path d="M310.944 491.12H57.6099C55.6253 491.115 53.7232 490.068 52.3211 488.209C50.919 486.35 50.1315 483.83 50.1315 481.204V9.82934C50.1488 7.21749 50.9439 4.72013 52.3441 2.87972C53.7444 1.0393 55.6366 0.00447424 57.6099 0L310.944 0C312.931 0 314.836 1.04474 316.241 2.90438C317.646 4.76402 318.436 7.28624 318.436 9.91617V481.204C318.436 483.833 317.646 486.356 316.241 488.215C314.836 490.075 312.931 491.12 310.944 491.12ZM57.6099 0.347328C55.7123 0.351928 53.8936 1.35295 52.553 3.13067C51.2125 4.9084 50.4595 7.31756 50.4595 9.82934V481.204C50.4595 483.715 51.2125 486.124 52.553 487.902C53.8936 489.68 55.7123 490.681 57.6099 490.686H310.944C312.843 490.681 314.663 489.681 316.006 487.903C317.348 486.126 318.104 483.717 318.108 481.204V9.82934C318.104 7.31596 317.348 4.90684 316.006 3.12961C314.663 1.35239 312.843 0.351919 310.944 0.347328L57.6099 0.347328Z" fill="#EBEBEB"/>
<path d="M594.743 491.12H341.395C339.41 491.115 337.506 490.069 336.102 488.21C334.698 486.352 333.907 483.832 333.904 481.204V9.82934C333.925 7.21591 334.723 4.71856 336.125 2.87863C337.527 1.0387 339.421 0.00442544 341.395 0L594.743 0C596.714 0.0090383 598.603 1.04589 600 2.88581C601.397 4.72574 602.191 7.22049 602.208 9.82934V481.204C602.208 483.827 601.422 486.344 600.023 488.203C598.624 490.062 596.725 491.111 594.743 491.12ZM341.395 0.347328C339.497 0.351919 337.677 1.35239 336.334 3.12961C334.991 4.90684 334.235 7.31596 334.232 9.82934V481.204C334.235 483.717 334.991 486.126 336.334 487.903C337.677 489.681 339.497 490.681 341.395 490.686H594.743C596.641 490.681 598.462 489.681 599.804 487.903C601.147 486.126 601.903 483.717 601.906 481.204V9.82934C601.903 7.31596 601.147 4.90684 599.804 3.12961C598.462 1.35239 596.641 0.351919 594.743 0.347328L341.395 0.347328Z" fill="#EBEBEB"/>
<path d="M547.524 350.175H498.652V568.574H547.524V350.175Z" fill="#E6E6E6"/>
<path d="M539.403 568.574H547.524V548.915H530.861L539.403 568.574Z" fill="#F0F0F0"/>
<path d="M348.585 350.175H299.713V568.574H348.585V350.175Z" fill="#E6E6E6"/>
<path d="M547.537 350.175H341.501V561.019H547.537V350.175Z" fill="#F0F0F0"/>
<path d="M541.226 359.518H347.811V417.348H541.226V359.518Z" fill="#E6E6E6"/>
<path d="M453.65 377.492H435.374C427.502 377.492 419.853 370.354 414.382 357.764H474.616C469.171 370.354 461.588 377.492 453.65 377.492Z" fill="#F0F0F0"/>
<path d="M349.635 568.574H341.501V548.915H358.163L349.635 568.574Z" fill="#F0F0F0"/>
<path d="M541.226 426.691H347.811V484.521H541.226V426.691Z" fill="#E6E6E6"/>
<path d="M453.65 444.578H435.374C427.502 444.578 419.853 437.458 414.382 424.85H474.616C469.171 437.527 461.588 444.578 453.65 444.578Z" fill="#F0F0F0"/>
<path d="M541.226 493.864H347.811V551.694H541.226V493.864Z" fill="#E6E6E6"/>
<path d="M453.65 511.82H435.374C427.502 511.82 419.853 504.683 414.382 492.092H474.616C469.171 504.683 461.588 511.82 453.65 511.82Z" fill="#F0F0F0"/>
<path d="M569.788 66.9472H358.74V202.544H569.788V66.9472Z" fill="#F0F0F0"/>
<path d="M577.398 66.9472H362.296V202.544H577.398V66.9472Z" fill="#F5F5F5"/>
<path d="M566.758 191.273V78.2354L372.949 78.2354V191.273H566.758Z" fill="white"/>
<path d="M505.855 302.278C509.66 250.179 512.297 165.466 510.25 137.159C510.211 136.674 510.095 136.205 509.909 135.783C509.724 135.361 509.473 134.996 509.174 134.711C508.777 134.326 508.306 134.097 507.815 134.05C507.325 134.002 506.834 134.138 506.399 134.443C505.964 134.747 505.602 135.207 505.355 135.77C505.108 136.333 504.986 136.977 505.002 137.628C505.356 151.66 505.776 186.723 503.519 247.21C502.391 277.306 500.777 297.919 501.893 302.278H505.855Z" fill="#217037"/>
<path d="M516.757 190.092C525.443 175.296 543.417 163.591 561.838 161.802C569.067 161.09 540.019 180.176 528.054 199.244C518.778 214.04 508.374 238.422 504.91 251.725C506.944 224.269 508.059 204.923 516.757 190.092Z" fill="#02AB31"/>
<path d="M498.56 186.896C489.573 170.329 468.817 157.565 446.356 156.123C437.539 155.568 471.087 176.372 483.603 197.698C493.325 214.248 503.283 241.687 506.038 256.744C506.708 225.519 507.56 203.481 498.56 186.896Z" fill="#02AB31"/>
<path d="M516.154 141.327C523.016 128.98 538.169 118.838 554.202 116.771C560.5 115.955 536.018 132.401 526.519 148.413C519.132 160.777 511.286 181.009 508.925 191.967C509.318 169.513 509.305 153.675 516.154 141.327Z" fill="#02AB31"/>
<path d="M502.339 143.863C494.716 129.813 477.148 119.029 458.124 117.813C450.659 117.344 479.116 134.954 489.612 153.015C497.851 167.029 506.301 190.266 508.623 203.012C509.227 176.546 509.948 157.895 502.339 143.863Z" fill="#02AB31"/>
<path d="M511.549 245.803C516.508 236.495 527.647 228.662 539.547 226.787C544.218 226.058 526.217 238.822 519.342 250.857C514.002 260.2 508.4 275.378 506.773 283.557C506.786 266.868 506.603 255.111 511.549 245.803Z" fill="#02AB31"/>
<path d="M502.496 240.558C498.193 231.32 487.539 223.522 475.666 221.646C470.995 220.917 488.208 233.612 494.257 245.543C498.94 254.816 503.441 269.855 504.49 277.983C505.776 261.45 506.852 249.797 502.496 240.558Z" fill="#02AB31"/>
<path d="M504.241 350.175C513.727 350.175 521.559 347.552 522.097 335.031L523.685 298.788H484.81L486.398 335.031C486.936 347.552 494.768 350.175 504.241 350.175Z" fill="#00132E"/>
<path d="M485.033 307.037H523.488C524.24 307.034 524.966 306.664 525.525 305.997C526.084 305.331 526.438 304.415 526.519 303.425L527.109 296.478C527.155 295.912 527.111 295.339 526.979 294.798C526.847 294.256 526.63 293.756 526.343 293.332C526.056 292.908 525.705 292.569 525.313 292.336C524.92 292.103 524.495 291.982 524.065 291.98H484.456C484.026 291.982 483.601 292.103 483.208 292.336C482.816 292.569 482.465 292.908 482.178 293.332C481.891 293.756 481.674 294.256 481.543 294.798C481.411 295.339 481.366 295.912 481.412 296.478L481.989 303.425C482.073 304.416 482.43 305.333 482.991 305.999C483.552 306.665 484.279 307.034 485.033 307.037Z" fill="#00132E"/>
<path d="M361.128 350.175H335.347L342.983 275.378H361.128V350.175Z" fill="#E6E6E6"/>
<path d="M398.966 350.175H350.107L341.002 262.631H389.874L398.966 350.175Z" fill="#F0F0F0"/>
<path d="M405.487 350.175H354.647L345.555 262.631H396.395L405.487 350.175Z" fill="#F5F5F5"/>
<path d="M359.134 343.28L351.472 269.525H391.894L399.556 343.28H359.134Z" fill="white"/>
<path d="M381.923 326.261H372.293C371.455 326.263 370.645 325.863 370.013 325.135C369.381 324.407 368.97 323.4 368.856 322.302L365.681 291.754C365.61 291.105 365.647 290.443 365.787 289.814C365.927 289.184 366.168 288.602 366.494 288.107C366.823 287.617 367.227 287.224 367.68 286.954C368.132 286.685 368.622 286.545 369.118 286.544H378.748C379.585 286.546 380.394 286.948 381.025 287.675C381.657 288.402 382.069 289.407 382.186 290.504L385.361 321.051C385.428 321.701 385.39 322.362 385.248 322.99C385.106 323.618 384.864 324.199 384.538 324.692C384.212 325.186 383.81 325.582 383.359 325.852C382.908 326.123 382.418 326.262 381.923 326.261ZM370.115 322.059C370.188 322.741 370.444 323.367 370.837 323.82C371.23 324.273 371.733 324.523 372.254 324.525H381.884C382.192 324.526 382.496 324.44 382.777 324.272C383.058 324.104 383.308 323.859 383.511 323.552C383.712 323.242 383.862 322.879 383.95 322.487C384.039 322.095 384.063 321.683 384.022 321.277L380.847 290.747C380.775 290.064 380.518 289.439 380.126 288.986C379.733 288.533 379.23 288.283 378.709 288.281H369.079C368.77 288.277 368.465 288.362 368.184 288.53C367.903 288.698 367.653 288.945 367.452 289.254C367.246 289.557 367.093 289.916 367.005 290.307C366.916 290.697 366.894 291.108 366.94 291.511L370.115 322.059Z" fill="#F5F5F5"/>
<path d="M277.488 62.9529H82.8135V334.875H277.488V62.9529Z" fill="#E6E6E6"/>
<path d="M298.362 54.1482H70.2182C69.9638 54.1482 69.7119 54.2148 69.4771 54.3442C69.2422 54.4736 69.029 54.6632 68.8498 54.9021C68.6705 55.141 68.5287 55.4244 68.4326 55.7362C68.3364 56.0479 68.2878 56.3817 68.2895 56.7184C68.2895 57.3955 68.4927 58.0448 68.8544 58.5236C69.2161 59.0023 69.7067 59.2713 70.2182 59.2713H298.362C298.873 59.2713 299.364 59.0023 299.726 58.5236C300.087 58.0448 300.29 57.3955 300.29 56.7184C300.292 56.3817 300.244 56.0479 300.147 55.7362C300.051 55.4244 299.91 55.141 299.73 54.9021C299.551 54.6632 299.338 54.4736 299.103 54.3442C298.868 54.2148 298.616 54.1482 298.362 54.1482Z" fill="#E6E6E6"/>
<path d="M285.767 62.9529H86.6838V334.875H285.767V62.9529Z" fill="#F0F0F0"/>
<path d="M274.195 319.575V78.2701L98.2426 78.2701V319.575H274.195Z" fill="#FAFAFA"/>
<path d="M138.18 319.575L206.063 78.2527H238.102L170.232 319.575H138.18Z" fill="white"/>
<path d="M177.107 319.575L244.99 78.2527H257.48L189.597 319.575H177.107Z" fill="white"/>
<path d="M274.195 319.558V78.2527H272.725V319.558H274.195Z" fill="#E6E6E6"/>
<g opacity="0.6">
<path opacity="0.6" d="M93.4668 439.49H69.0242L72.8946 49.5809H97.3503L93.4668 439.49Z" fill="#F0F0F0"/>
<path opacity="0.6" d="M102.992 439.49H83.9418L87.8253 49.5809H106.862L102.992 439.49Z" fill="#E6E6E6"/>
<path opacity="0.6" d="M117.909 439.49H93.4668L97.3503 49.5809H121.793L117.909 439.49Z" fill="#F0F0F0"/>
<path opacity="0.6" d="M127.435 439.49H108.384L112.268 49.5809H131.318L127.435 439.49Z" fill="#E6E6E6"/>
<path opacity="0.6" d="M142.352 439.49H117.909L121.793 49.5809H146.236L142.352 439.49Z" fill="#F0F0F0"/>
</g>
<g opacity="0.6">
<path opacity="0.6" d="M281.726 439.49H295.541L297.391 49.5809H283.576L281.726 439.49Z" fill="#F0F0F0"/>
<path opacity="0.6" d="M276.347 439.49H287.105L288.968 49.5809H278.196L276.347 439.49Z" fill="#E6E6E6"/>
<path opacity="0.6" d="M267.91 439.49H281.726L283.576 49.5809H269.76L267.91 439.49Z" fill="#F0F0F0"/>
<path opacity="0.6" d="M262.531 439.49H273.29L275.153 49.5809H264.381L262.531 439.49Z" fill="#E6E6E6"/>
<path opacity="0.6" d="M254.095 439.49H267.91L269.76 49.5809H255.945L254.095 439.49Z" fill="#F0F0F0"/>
</g>
<path d="M328 647C468.492 647 582.384 638.199 582.384 627.341C582.384 616.484 468.492 607.683 328 607.683C187.508 607.683 73.6163 616.484 73.6163 627.341C73.6163 638.199 187.508 647 328 647Z" fill="#F5F5F5"/>
<path d="M373.421 110.78C365.549 96.6783 367.373 84.3656 373.421 75.5088C380.965 64.3943 393.285 64.4812 401.498 70.1599C414.356 79.0341 417.124 117.917 395.647 123.405C388.026 119.884 380.6 115.665 373.421 110.78Z" fill="#263238"/>
<path d="M398.992 72.6086C406.864 66.4783 404.673 54.5824 411.784 48.2957C421.677 39.6126 442.997 43.3811 436.332 65.089C429.667 86.7969 453.388 88.0473 446.5 109.616C439.612 131.185 419.604 144.349 414.461 113.09C410.617 89.6623 426.951 59.4797 413.765 62.7272C405.539 64.7417 402.797 75.943 402.797 75.943L398.992 72.6086Z" fill="#263238"/>
<path d="M379.43 164.546C378.355 168.488 377.187 172.066 375.941 175.765C374.694 179.464 373.317 183.024 371.873 186.584C368.968 194.055 365.319 200.976 361.023 207.163C359.795 208.895 358.446 210.471 356.995 211.869C355.56 213.217 354.031 214.38 352.429 215.343C349.478 217.09 346.401 218.44 343.245 219.372C337.267 221.199 331.145 222.08 325.009 221.994C324.32 221.979 323.659 221.634 323.148 221.024C322.637 220.413 322.31 219.578 322.228 218.673C322.147 217.768 322.316 216.854 322.704 216.101C323.092 215.349 323.673 214.808 324.34 214.578H324.471C329.959 212.88 335.362 210.728 340.648 208.135C343.132 206.91 345.537 205.417 347.837 203.672C348.862 202.895 349.836 202.006 350.75 201.015C351.634 200.036 352.451 198.955 353.19 197.785C354.88 195.142 356.403 192.319 357.743 189.345C359.16 186.271 360.524 183.093 361.784 179.776C364.277 173.212 366.638 166.196 368.672 159.458V159.353C369.211 157.481 370.291 155.969 371.672 155.15C373.054 154.331 374.624 154.272 376.039 154.986C377.453 155.7 378.596 157.128 379.214 158.957C379.833 160.786 379.878 162.865 379.339 164.737L379.43 164.546Z" fill="#B55B52"/>
<path d="M377.725 151.695C366.888 153.327 360.918 174.844 360.918 174.844L372.018 195.545C372.018 195.545 385.138 175.869 386.279 167.082C387.42 158.034 385.728 150.462 377.725 151.695Z" fill="#263238"/>
<path opacity="0.2" d="M371.795 164.859C375.429 161.837 379.391 163.504 382.763 169.113C383.46 170.723 383.927 172.489 384.14 174.323C380.86 182.19 372.004 195.528 372.004 195.528L366.927 186.063C366.547 180.471 369.446 166.717 371.795 164.859Z" fill="black"/>
<path d="M326.99 215.342L318.816 209.507L318.593 223.609C318.593 223.609 324.051 225.172 327.659 221.317L326.99 215.342Z" fill="#B55B52"/>
<path d="M310.616 209.994L312.046 221.508L318.645 223.609L318.868 209.507L310.616 209.994Z" fill="#B55B52"/>
<path d="M351.813 184.621L344.649 176.841L295.843 273.902L303.072 281.682C311.311 290.608 328.905 276.125 342.432 249.311C355.959 222.497 360.052 193.548 351.813 184.621Z" fill="#31A592"/>
<path opacity="0.1" d="M351.813 184.621L344.649 176.841L295.843 273.902L303.072 281.682C311.311 290.608 328.905 276.125 342.432 249.311C355.959 222.497 360.052 193.548 351.813 184.621Z" fill="#31A592"/>
<path d="M336.44 238.932C349.461 211.69 352.769 183.537 343.829 176.051C334.889 168.564 317.086 184.579 304.065 211.82C291.044 239.062 287.737 267.215 296.677 274.702C305.617 282.189 323.42 266.174 336.44 238.932Z" fill="#31A592"/>
<path d="M311.193 241.288L317.753 228.194C317.087 225.509 317.055 222.619 317.661 219.91C318.412 216.494 319.578 213.262 321.112 210.341C322.496 207.389 324.306 204.828 326.439 202.804C328.262 201.206 329.824 200.824 331.096 201.658L332.697 198.497L334.088 200.008L332.513 203.186C332.941 204.071 333.226 205.062 333.353 206.098C333.479 207.135 333.443 208.195 333.248 209.212C332.737 212.277 331.851 215.21 330.624 217.895L327.672 216.298C328.59 214.445 329.049 212.26 328.984 210.046L322.831 222.202C323.678 224.957 323.852 227.993 323.329 230.885C321.657 237.828 318.46 243.952 314.145 248.477C312.151 250.307 310.38 250.833 308.832 250.058L307.244 253.218L305.853 251.708L307.362 248.703C306.892 247.67 306.59 246.519 306.475 245.323C306.36 244.127 306.434 242.913 306.693 241.757C307.403 237.885 308.572 234.186 310.157 230.799L313.174 232.709C312.506 234.27 311.969 235.924 311.574 237.641C311.289 238.818 311.16 240.052 311.193 241.288ZM327.698 208.396C326.967 208.491 326.277 208.892 325.73 209.542C324.208 211.208 323.082 213.422 322.49 215.916C322.219 216.977 322.142 218.107 322.267 219.215L327.698 208.396ZM312.374 243.129C312.777 243.21 313.189 243.171 313.579 243.014C313.97 242.858 314.329 242.589 314.631 242.226C316.507 240.292 317.882 237.633 318.567 234.619C318.829 233.412 318.806 232.127 318.501 230.937L312.374 243.129Z" fill="white"/>
<path opacity="0.1" d="M342.498 209.056C343.468 200.546 342.498 193.721 339.454 190.37C332.749 183.093 318.462 194.902 307.428 216.732C302.79 225.723 299.367 235.712 297.312 246.255C298.441 236.286 302.18 224.008 308.097 212.217C319.078 190.387 333.419 178.595 340.123 185.854C343.744 189.762 344.4 198.462 342.498 209.056Z" fill="black"/>
<path d="M437.618 532.816L426.597 534.206L420.981 500.22L432.002 498.83L437.618 532.816Z" fill="#B55B52"/>
<path d="M499.006 511.803L488.759 517.117L478.88 484.885L489.127 479.571L499.006 511.803Z" fill="#B55B52"/>
<path d="M485.781 510.449L497.012 503.051C497.205 502.924 497.427 502.892 497.636 502.962C497.845 503.032 498.029 503.199 498.153 503.433L503.847 514.356C503.992 514.639 504.088 514.959 504.13 515.296C504.173 515.633 504.16 515.977 504.093 516.307C504.025 516.636 503.905 516.943 503.741 517.205C503.576 517.468 503.371 517.681 503.139 517.829C499.203 520.33 497.471 521.563 492.525 524.776C489.481 526.773 482.698 531.479 478.499 534.24C474.301 537.002 472.018 531.653 473.579 530.003C480.572 522.622 482.882 517.048 484.417 512.376C484.687 511.542 485.17 510.86 485.781 510.449Z" fill="#263238"/>
<path d="M424.445 526.634H437.696C437.933 526.635 438.163 526.739 438.35 526.931C438.538 527.122 438.672 527.39 438.733 527.693L441.619 541.586C441.692 541.914 441.704 542.26 441.657 542.596C441.609 542.931 441.502 543.247 441.345 543.518C441.188 543.789 440.985 544.006 440.752 544.154C440.519 544.301 440.263 544.373 440.005 544.365C435.374 544.261 433.157 544.365 427.332 544.365H409.541C404.7 544.365 403.637 537.87 405.605 537.297C414.592 534.657 419.774 531.028 422.543 527.572C423.061 526.944 423.743 526.607 424.445 526.634Z" fill="#263238"/>
<path opacity="0.2" d="M420.995 500.237L423.881 517.742H435.138L432.015 498.83L420.995 500.237Z" fill="black"/>
<path opacity="0.2" d="M489.127 479.589L478.88 484.903L483.984 501.505L494.217 496.191L489.127 479.589Z" fill="black"/>
<path d="M411.365 137.02C420.129 135.683 425.796 141.206 426.19 152.789C427.345 193.617 430.756 203.012 435.912 224.13L392.209 240.228C376.675 195.701 371.217 174.705 369.485 164.824C369.125 162.527 369.343 160.138 370.106 158.021C370.869 155.904 372.135 154.176 373.71 153.102C385.343 144.524 398.138 139.06 411.365 137.02Z" fill="#263238"/>
<path d="M398.074 109.651C398.599 118.56 400.344 133.964 405.946 138.045C405.946 138.045 405.119 143.55 390.635 161.906C381.7 151.938 386.266 145.252 386.266 145.252C392.918 140.372 391.356 134.016 388.732 127.886L398.074 109.651Z" fill="#B55B52"/>
<path opacity="0.2" d="M397.064 111.648C398.02 116.711 398.154 121.985 397.457 127.122C396.959 130.595 394.099 133.235 390.897 134.745C390.461 132.333 389.744 130.024 388.772 127.903L397.064 111.648Z" fill="black"/>
<path d="M400.645 92.823C402.784 107.22 403.925 113.246 399.963 122.346C393.994 136.1 380.165 136.447 374.812 123.179C369.997 111.249 367.294 89.7144 376.662 80.4408C378.722 78.3859 381.145 77.0625 383.701 76.5964C386.256 76.1302 388.86 76.5369 391.263 77.7777C393.666 79.0185 395.79 81.0522 397.432 83.6855C399.074 86.3189 400.18 89.4643 400.645 92.823Z" fill="#B55B52"/>
<path d="M406.326 101.593C406.486 102.981 406.436 104.397 406.179 105.76C405.923 107.122 405.464 108.403 404.831 109.529C403.125 112.534 400.554 111.075 399.583 107.793C398.717 104.806 398.546 99.6306 400.96 97.8245C401.488 97.4411 402.08 97.2374 402.683 97.2319C403.285 97.2263 403.879 97.4191 404.411 97.7928C404.943 98.1665 405.397 98.7095 405.731 99.3728C406.066 100.036 406.27 100.799 406.326 101.593Z" fill="#B55B52"/>
<path d="M391.107 85.1992C390.701 90.7043 394.033 100.117 400.291 102.305C406.773 92.441 402.495 78.9126 396.539 78.6347C390.582 78.3569 391.107 85.1992 391.107 85.1992Z" fill="#263238"/>
<path d="M382.369 70.1947C372.805 70.7678 362.545 76.4119 366.1 96.2442C374.445 93.9345 397.667 90.496 399.451 82.6116C397.103 72.4871 388.641 69.8126 382.369 70.1947Z" fill="#263238"/>
<path d="M392.209 240.228C392.209 240.228 389.664 357.069 396.762 401.162C404.122 447.044 420.745 512.619 420.745 512.619L436.358 511.282C436.358 511.282 426.269 425.545 423.238 390.169C418.961 341.405 424.275 228.402 424.275 228.402L392.209 240.228Z" fill="#407BFF"/>
<path opacity="0.2" d="M414.198 276.767C414.907 266.174 420.942 268.206 422.293 282.55C421.703 305.126 421.283 331.332 421.624 354.273C415.117 337.445 412.585 300.872 414.198 276.767Z" fill="black"/>
<path d="M438.339 512.619L419.538 514.304L416.927 502.634L437.276 499.786L438.339 512.619Z" fill="#263238"/>
<path d="M407.625 234.55C407.625 234.55 420.929 332.496 438.995 385.203C453.585 427.767 480.021 496.347 480.021 496.347L494.362 489.244C494.362 489.244 471.94 411.391 463.831 381.451C443.64 306.776 454.647 261.45 435.912 224.13L407.625 234.55Z" fill="#407BFF"/>
<path d="M496.054 491.05L479.51 498.674L474.8 487.456L494.493 480.995L496.054 491.05Z" fill="#263238"/>
<path d="M435.846 220.552L438.917 225.016C439.153 225.363 438.916 225.901 438.365 226.075L392.537 242.972C392.144 243.111 391.763 242.972 391.671 242.66L390.189 237.624C390.084 237.276 390.359 236.842 390.792 236.686L435.046 220.379C435.179 220.311 435.323 220.291 435.464 220.321C435.605 220.352 435.737 220.432 435.846 220.552Z" fill="#263238"/>
<path d="M431.281 229.236L432.475 228.784C432.711 228.697 432.855 228.471 432.789 228.28L430.821 221.768C430.821 221.577 430.533 221.49 430.297 221.577L429.103 222.011C428.867 222.011 428.722 222.324 428.775 222.515L430.756 229.045C430.808 229.236 431.044 229.322 431.281 229.236Z" fill="#407BFF"/>
<path d="M395.988 242.226L397.182 241.791C397.405 241.791 397.562 241.479 397.497 241.288L395.529 234.775C395.529 234.584 395.227 234.498 394.991 234.584L393.81 235.019C393.574 235.019 393.429 235.331 393.482 235.522L395.45 242.052C395.516 242.243 395.752 242.312 395.988 242.226Z" fill="#407BFF"/>
<path d="M413.634 235.731L414.828 235.296C415.064 235.21 415.209 234.984 415.143 234.793L413.175 228.263C413.175 228.072 412.873 227.985 412.637 228.072L411.456 228.506C411.22 228.506 411.076 228.836 411.128 229.027L413.109 235.54C413.162 235.731 413.398 235.817 413.634 235.731Z" fill="#407BFF"/>
<path d="M385.19 102.461C385.413 103.625 385.19 104.719 384.573 104.91C383.957 105.101 383.353 104.337 383.13 103.173C382.907 102.01 383.13 100.933 383.747 100.725C384.364 100.516 384.967 101.263 385.19 102.461Z" fill="#263238"/>
<path d="M375.337 105.83C375.573 106.977 375.337 108.071 374.72 108.279C374.104 108.487 373.5 107.689 373.277 106.542C373.054 105.396 373.277 104.285 373.894 104.094C374.51 103.903 375.114 104.667 375.337 105.83Z" fill="#263238"/>
<path d="M374.156 104.076L371.913 103.99C371.913 103.99 373.408 105.796 374.156 104.076Z" fill="#263238"/>
<path d="M378.341 106.907C378.084 109.807 377.528 112.647 376.688 115.347C377.215 115.614 377.779 115.724 378.341 115.67C378.904 115.616 379.45 115.399 379.942 115.035L378.341 106.907Z" fill="#A02724"/>
<path d="M383.799 118.525C383.749 118.514 383.702 118.483 383.665 118.436C383.628 118.39 383.601 118.33 383.589 118.265C383.58 118.221 383.577 118.176 383.581 118.131C383.585 118.086 383.596 118.043 383.613 118.003C383.63 117.964 383.653 117.93 383.681 117.904C383.708 117.877 383.74 117.858 383.773 117.848C384.864 117.506 385.878 116.827 386.733 115.868C387.588 114.908 388.26 113.694 388.693 112.325C388.703 112.28 388.721 112.238 388.744 112.202C388.767 112.166 388.795 112.136 388.827 112.115C388.859 112.094 388.894 112.082 388.929 112.079C388.965 112.076 389.001 112.083 389.034 112.1C389.098 112.131 389.151 112.193 389.183 112.273C389.214 112.353 389.222 112.446 389.205 112.534C388.753 114.013 388.041 115.328 387.128 116.369C386.215 117.411 385.128 118.15 383.957 118.525C383.905 118.545 383.851 118.545 383.799 118.525Z" fill="#263238"/>
<path d="M387.119 97.2514C387.025 97.2355 386.938 97.1808 386.869 97.0951C386.36 96.5306 385.756 96.1352 385.108 95.9419C384.46 95.7486 383.786 95.7629 383.143 95.9837C383.009 96.0388 382.864 96.0224 382.739 95.9381C382.614 95.8537 382.519 95.7081 382.474 95.5322C382.45 95.4457 382.439 95.3535 382.442 95.2612C382.445 95.1689 382.463 95.0785 382.494 94.9955C382.524 94.9126 382.568 94.8388 382.621 94.7788C382.674 94.7188 382.736 94.6737 382.802 94.6465C383.614 94.3548 384.467 94.3256 385.289 94.5613C386.111 94.797 386.878 95.2908 387.525 96.0011C387.613 96.0997 387.675 96.233 387.701 96.3814C387.727 96.5297 387.717 96.6853 387.671 96.8252C387.626 96.9651 387.547 97.082 387.448 97.1588C387.349 97.2355 387.233 97.268 387.119 97.2514Z" fill="#263238"/>
<path d="M369.472 101.385H369.367C369.302 101.355 369.241 101.309 369.189 101.249C369.137 101.188 369.094 101.115 369.064 101.032C369.034 100.95 369.016 100.86 369.011 100.769C369.007 100.677 369.017 100.586 369.039 100.499C369.295 99.4382 369.739 98.4743 370.335 97.6885C370.931 96.9026 371.661 96.318 372.464 95.9837C372.531 95.9603 372.601 95.9547 372.67 95.9674C372.739 95.9801 372.805 96.0108 372.865 96.0576C372.924 96.1045 372.977 96.1666 373.018 96.2404C373.06 96.3141 373.09 96.3981 373.107 96.4873C373.138 96.6691 373.115 96.8602 373.041 97.0193C372.968 97.1785 372.85 97.293 372.713 97.3383C372.09 97.6201 371.527 98.095 371.07 98.7233C370.614 99.3516 370.277 100.115 370.089 100.95C370.044 101.11 369.957 101.243 369.843 101.323C369.729 101.403 369.597 101.425 369.472 101.385Z" fill="#263238"/>
<path d="M420.824 164.355C417.413 173.663 413.87 182.798 410.131 191.881C408.268 196.431 406.405 200.981 404.424 205.461C402.443 209.942 400.488 214.439 398.139 218.937C397.602 220.049 396.932 221.23 396.303 222.411L396.067 222.827L395.948 223.053L395.752 223.383C395.476 223.835 395.201 224.217 394.925 224.599C394.424 225.272 393.884 225.893 393.311 226.457C391.422 228.286 389.368 229.797 387.197 230.955C383.367 233.002 379.418 234.64 375.389 235.852C367.677 238.212 359.846 239.831 351.957 240.697L351.065 233.299C354.725 232.014 358.451 230.66 362.112 229.253C365.772 227.846 369.407 226.353 372.949 224.72C376.399 223.182 379.769 221.349 383.038 219.233C384.417 218.333 385.715 217.232 386.909 215.95C387.104 215.735 387.284 215.497 387.447 215.238C387.494 215.161 387.538 215.08 387.578 214.995L387.867 214.405C388.326 213.45 388.798 212.546 389.27 211.47C391.133 207.319 392.97 202.873 394.755 198.428L400.068 184.934L410.564 157.704L420.824 164.355Z" fill="#B55B52"/>
<path d="M354.66 233.369L346.932 229.444L347.588 243.875C347.588 243.875 353.663 243.875 356.47 238.926L354.66 233.369Z" fill="#B55B52"/>
<path d="M340.858 229.861L339.204 240.472L347.588 243.875L346.932 229.444L340.858 229.861Z" fill="#B55B52"/>
<path d="M411.312 144.488C406.995 147.11 401.984 170.85 401.984 170.85L420.68 173.663C420.68 173.663 424.301 162.132 423.566 156.21C422.464 146.745 416.232 141.501 411.312 144.488Z" fill="#263238"/>
<path d="M480.192 514.686C480.119 514.522 480.062 514.347 480.021 514.165C479.961 513.971 479.941 513.758 479.964 513.55C479.987 513.343 480.052 513.147 480.153 512.984C481.058 511.525 485.073 512.116 485.519 512.185C485.57 512.19 485.62 512.216 485.66 512.26C485.7 512.303 485.728 512.362 485.742 512.428C485.759 512.492 485.76 512.562 485.746 512.627C485.732 512.692 485.703 512.75 485.663 512.793C484.522 514.061 482.396 516.093 481.032 515.572C480.852 515.511 480.685 515.4 480.54 515.248C480.396 515.095 480.277 514.904 480.192 514.686ZM484.823 512.793C483.21 512.619 481.045 512.654 480.559 513.418C480.522 513.499 480.503 513.592 480.503 513.687C480.503 513.782 480.522 513.875 480.559 513.957C480.598 514.177 480.678 514.38 480.793 514.547C480.908 514.715 481.053 514.84 481.215 514.912C481.937 515.19 483.275 514.408 484.85 512.793H484.823Z" fill="#407BFF"/>
<path d="M481.176 509.893C481.125 509.766 481.086 509.632 481.058 509.493C481.003 509.225 481.019 508.94 481.102 508.684C481.186 508.429 481.332 508.218 481.517 508.087C481.688 507.939 481.881 507.843 482.082 507.804C482.284 507.765 482.489 507.784 482.685 507.861C484.246 508.417 485.689 512.22 485.755 512.376C485.778 512.429 485.79 512.489 485.79 512.55C485.79 512.611 485.778 512.671 485.755 512.724C485.729 512.774 485.693 512.814 485.652 512.842C485.611 512.869 485.565 512.882 485.519 512.88C483.849 512.597 482.31 511.538 481.176 509.893ZM484.994 511.994C484.456 510.744 483.459 508.851 482.54 508.521C482.42 508.469 482.293 508.455 482.167 508.479C482.042 508.503 481.923 508.565 481.819 508.66C481.53 508.903 481.53 509.129 481.57 509.285C481.766 510.292 483.708 511.699 485.033 512.064L484.994 511.994Z" fill="#407BFF"/>
<path d="M418.528 529.517C417.61 529.615 416.692 529.33 415.904 528.701C415.696 528.502 415.527 528.241 415.411 527.939C415.295 527.637 415.234 527.303 415.235 526.964C415.216 526.78 415.237 526.593 415.295 526.424C415.353 526.255 415.446 526.111 415.563 526.009C416.757 524.932 421.27 527.641 422.123 528.197C422.174 528.229 422.217 528.281 422.245 528.346C422.273 528.412 422.286 528.487 422.28 528.562C422.273 528.634 422.249 528.701 422.211 528.754C422.174 528.807 422.124 528.843 422.07 528.857C420.91 529.241 419.723 529.462 418.528 529.517ZM416.416 526.495C416.233 526.481 416.051 526.535 415.891 526.651C415.891 526.651 415.786 526.773 415.799 526.981C415.803 527.209 415.846 527.433 415.926 527.634C416.005 527.836 416.119 528.011 416.258 528.145C417.032 528.926 418.882 529.031 421.244 528.44C419.732 527.471 418.117 526.816 416.455 526.495H416.416Z" fill="#407BFF"/>
<path d="M422.136 528.926H422.031C420.535 528.127 417.518 524.915 417.688 523.265C417.688 522.9 417.911 522.449 418.594 522.344C421.218 521.928 422.346 528.266 422.398 528.527C422.406 528.59 422.402 528.655 422.386 528.716C422.37 528.777 422.343 528.831 422.307 528.874C422.256 528.916 422.196 528.934 422.136 528.926ZM418.843 522.987H418.659C418.384 522.987 418.239 523.143 418.213 523.317C418.121 524.272 420.207 526.79 421.729 527.902C421.375 526.391 420.43 522.987 418.843 522.987Z" fill="#407BFF"/>
<path d="M384.009 100.725H381.753C381.753 100.725 383.261 102.461 384.009 100.725Z" fill="#263238"/>
<path d="M389.165 544.382H460.958C461.452 544.382 461.926 544.642 462.275 545.105C462.625 545.567 462.821 546.194 462.821 546.848V554.872H387.316V546.848C387.316 546.197 387.51 545.573 387.857 545.111C388.203 544.649 388.674 544.387 389.165 544.382Z" fill="#263238"/>
<path d="M463.464 581.425H387.958V591.897H463.464V581.425Z" fill="#263238"/>
<path opacity="0.5" d="M463.464 581.425H413.542V591.897H463.464V581.425Z" fill="black"/>
<path d="M420.811 554.854L412.322 625.188C412.251 625.766 412.028 626.293 411.691 626.674C411.355 627.055 410.928 627.267 410.485 627.272H406.326C406.058 627.271 405.792 627.193 405.548 627.044C405.304 626.895 405.088 626.677 404.913 626.407C404.739 626.136 404.61 625.819 404.537 625.477C404.464 625.134 404.448 624.775 404.49 624.424L412.899 554.785L420.811 554.854Z" fill="#263238"/>
<path opacity="0.5" d="M420.811 554.854L420.168 560.203H412.243L412.899 554.854H420.811Z" fill="black"/>
<path d="M395.227 554.854L386.738 625.188C386.667 625.766 386.444 626.293 386.107 626.674C385.771 627.055 385.344 627.267 384.901 627.272H380.742C380.474 627.271 380.208 627.193 379.964 627.044C379.72 626.895 379.504 626.677 379.329 626.407C379.155 626.136 379.026 625.819 378.953 625.477C378.88 625.134 378.864 624.775 378.906 624.424L387.315 554.785L395.227 554.854Z" fill="#263238"/>
<path d="M471.218 624.493L462.821 554.854H454.949L463.398 625.188C463.467 625.768 463.69 626.296 464.027 626.678C464.363 627.06 464.792 627.271 465.235 627.272H469.381C469.645 627.27 469.905 627.194 470.145 627.048C470.385 626.903 470.598 626.692 470.772 626.43C470.946 626.167 471.075 625.859 471.152 625.525C471.229 625.191 471.251 624.839 471.218 624.493Z" fill="#263238"/>
<path opacity="0.5" d="M463.464 560.203L462.821 554.854H454.897L455.539 560.203H463.464Z" fill="black"/>
<path d="M445.634 624.493L437.237 554.854H429.365L437.814 625.188C437.883 625.768 438.106 626.296 438.442 626.678C438.779 627.06 439.208 627.271 439.651 627.272H443.797C444.061 627.27 444.321 627.194 444.561 627.048C444.801 626.903 445.014 626.692 445.188 626.43C445.362 626.167 445.491 625.859 445.568 625.525C445.645 625.191 445.667 624.839 445.634 624.493Z" fill="#263238"/>
<path opacity="0.5" d="M445.634 624.493L437.237 554.854H429.365L437.814 625.188C437.883 625.768 438.106 626.296 438.442 626.678C438.779 627.06 439.208 627.271 439.651 627.272H443.797C444.061 627.27 444.321 627.194 444.561 627.048C444.801 626.903 445.014 626.692 445.188 626.43C445.362 626.167 445.491 625.859 445.568 625.525C445.645 625.191 445.667 624.839 445.634 624.493Z" fill="black"/>
<path opacity="0.5" d="M412.9 544.382H460.958C461.452 544.382 461.926 544.642 462.275 545.105C462.625 545.567 462.821 546.194 462.821 546.848V554.872H412.965V544.452L412.9 544.382Z" fill="black"/>
<path d="M191.263 617.772L201.772 592.244L164.184 548.637L161.245 617.772H191.263Z" fill="#31A592"/>
<path opacity="0.1" d="M191.263 617.772L201.772 592.244L164.184 548.637L161.245 617.772H191.263Z" fill="black"/>
<path d="M320.81 326.869C341.894 307.766 359.554 309.728 365.418 315.303C371.283 320.878 352.652 363.217 352.652 363.217C345.685 360.538 339.235 355.905 333.741 349.633C328.246 343.361 323.836 335.597 320.81 326.869Z" fill="#31A592"/>
<path opacity="0.2" d="M330.847 346.059C342.721 330.62 354.83 325.671 358.11 328.258C361.39 330.846 350.855 360.612 350.855 360.612C350.855 360.612 336.62 363.321 330.847 346.059Z" fill="black"/>
<path d="M137.616 386.748L136.422 385.949C139.718 377.364 143.595 369.191 148.007 361.532L149.069 362.609C144.714 370.186 140.881 378.265 137.616 386.748Z" fill="#31A592"/>
<path d="M131.371 406.372L130.059 405.799C131.056 401.926 132.184 398.054 133.417 394.303L134.651 395.015C133.47 398.696 132.355 402.517 131.371 406.372Z" fill="#31A592"/>
<path d="M376.688 454.564C376.688 540.788 327.646 610.67 256.85 610.67C186.055 610.67 128.668 540.788 128.668 454.564C128.668 368.34 186.055 298.458 256.85 298.458C327.646 298.458 376.688 368.34 376.688 454.564Z" fill="#31A592"/>
<path opacity="0.1" d="M239.768 594.137L234.638 608.343C238.347 609.141 242.112 609.72 245.934 610.079L239.768 594.137Z" fill="black"/>
<path d="M232.001 627.341L246.748 592.244L199.581 569.425L193.546 627.341H232.001Z" fill="#31A592"/>
<path d="M300.697 627.341L287.918 592.244L332.828 569.425L335.806 627.341H300.697Z" fill="#31A592"/>
<path opacity="0.2" d="M332.959 477.123C332.959 500.463 317.373 519.375 298.204 519.375C279.036 519.375 263.515 500.463 263.515 477.123C263.515 453.782 279.049 434.87 298.204 434.87C317.36 434.87 332.959 453.782 332.959 477.123Z" fill="black"/>
<path opacity="0.2" d="M286.685 490.946C289.939 490.946 292.576 484.446 292.576 476.428C292.576 468.41 289.939 461.91 286.685 461.91C283.432 461.91 280.794 468.41 280.794 476.428C280.794 484.446 283.432 490.946 286.685 490.946Z" fill="black"/>
<path opacity="0.4" d="M244.557 398.314C246.249 405.139 244.688 412.589 241.08 414.934C237.472 417.278 233.208 413.631 231.476 406.806C229.744 399.981 231.332 392.531 234.94 390.187C238.548 387.842 242.864 391.472 244.557 398.314Z" fill="black"/>
<path opacity="0.4" d="M335.872 398.627C334.56 405.452 336.174 412.815 339.428 415.055C342.681 417.296 346.355 413.579 347.641 406.737C348.926 399.894 347.339 392.548 344.085 390.308C340.831 388.068 337.184 391.784 335.872 398.627Z" fill="black"/>
<path opacity="0.2" d="M318.029 490.946C321.282 490.946 323.92 484.446 323.92 476.428C323.92 468.41 321.282 461.91 318.029 461.91C314.775 461.91 312.138 468.41 312.138 476.428C312.138 484.446 314.775 490.946 318.029 490.946Z" fill="black"/>
<path d="M219.38 325.445C196.538 300.403 176.084 298.458 169.025 303.008C161.966 307.558 180.321 356.652 180.321 356.652C180.321 356.652 205.381 354.707 219.38 325.445Z" fill="#31A592"/>
<path opacity="0.2" d="M206.522 343.471C193.992 324.368 180.452 316.415 176.503 318.394C172.554 320.374 182.565 354.273 182.565 354.273C182.565 354.273 198.702 360.421 206.522 343.471Z" fill="black"/>
<path opacity="0.4" d="M265.509 312.038H284.809C284.809 312.038 280.611 305.925 266.362 304.067C258.293 303.2 250.172 303.784 242.221 305.804C242.221 305.804 258.123 305.335 265.509 312.038Z" fill="black"/>
</svg>
