<svg width="162" height="29" viewBox="0 0 162 29" fill="none" xmlns="http://www.w3.org/2000/svg">
<path d="M0.84 13.6C0.84 11.952 1.208 10.48 1.944 9.184C2.696 7.872 3.712 6.856 4.992 6.136C6.288 5.4 7.736 5.032 9.336 5.032C11.208 5.032 12.848 5.512 14.256 6.472C15.664 7.432 16.648 8.76 17.208 10.456H13.344C12.96 9.656 12.416 9.056 11.712 8.656C11.024 8.256 10.224 8.056 9.312 8.056C8.336 8.056 7.464 8.288 6.696 8.752C5.944 9.2 5.352 9.84 4.92 10.672C4.504 11.504 4.296 12.48 4.296 13.6C4.296 14.704 4.504 15.68 4.92 16.528C5.352 17.36 5.944 18.008 6.696 18.472C7.464 18.92 8.336 19.144 9.312 19.144C10.224 19.144 11.024 18.944 11.712 18.544C12.416 18.128 12.96 17.52 13.344 16.72H17.208C16.648 18.432 15.664 19.768 14.256 20.728C12.864 21.672 11.224 22.144 9.336 22.144C7.736 22.144 6.288 21.784 4.992 21.064C3.712 20.328 2.696 19.312 1.944 18.016C1.208 16.72 0.84 15.248 0.84 13.6ZM27.5659 8.512C28.5739 8.512 29.4699 8.736 30.2539 9.184C31.0379 9.616 31.6459 10.264 32.0779 11.128C32.5259 11.976 32.7499 13 32.7499 14.2V22H29.3899V14.656C29.3899 13.6 29.1259 12.792 28.5979 12.232C28.0699 11.656 27.3499 11.368 26.4379 11.368C25.5099 11.368 24.7739 11.656 24.2299 12.232C23.7019 12.792 23.4379 13.6 23.4379 14.656V22H20.0779V4.24H23.4379V10.36C23.8699 9.784 24.4459 9.336 25.1659 9.016C25.8859 8.68 26.6859 8.512 27.5659 8.512ZM35.0811 15.304C35.0811 13.96 35.3451 12.768 35.8731 11.728C36.4171 10.688 37.1451 9.888 38.0571 9.328C38.9851 8.768 40.0171 8.488 41.1531 8.488C42.1451 8.488 43.0091 8.688 43.7451 9.088C44.4971 9.488 45.0971 9.992 45.5451 10.6V8.704H48.9291V22H45.5451V20.056C45.1131 20.68 44.5131 21.2 43.7451 21.616C42.9931 22.016 42.1211 22.216 41.1291 22.216C40.0091 22.216 38.9851 21.928 38.0571 21.352C37.1451 20.776 36.4171 19.968 35.8731 18.928C35.3451 17.872 35.0811 16.664 35.0811 15.304ZM45.5451 15.352C45.5451 14.536 45.3851 13.84 45.0651 13.264C44.7451 12.672 44.3131 12.224 43.7691 11.92C43.2251 11.6 42.6411 11.44 42.0171 11.44C41.3931 11.44 40.8171 11.592 40.2891 11.896C39.7611 12.2 39.3291 12.648 38.9931 13.24C38.6731 13.816 38.5131 14.504 38.5131 15.304C38.5131 16.104 38.6731 16.808 38.9931 17.416C39.3291 18.008 39.7611 18.464 40.2891 18.784C40.8331 19.104 41.4091 19.264 42.0171 19.264C42.6411 19.264 43.2251 19.112 43.7691 18.808C44.3131 18.488 44.7451 18.04 45.0651 17.464C45.3851 16.872 45.5451 16.168 45.5451 15.352ZM68.7227 8.512C70.3547 8.512 71.6667 9.016 72.6587 10.024C73.6667 11.016 74.1707 12.408 74.1707 14.2V22H70.8107V14.656C70.8107 13.616 70.5467 12.824 70.0187 12.28C69.4907 11.72 68.7707 11.44 67.8587 11.44C66.9467 11.44 66.2187 11.72 65.6747 12.28C65.1467 12.824 64.8827 13.616 64.8827 14.656V22H61.5227V14.656C61.5227 13.616 61.2587 12.824 60.7307 12.28C60.2027 11.72 59.4827 11.44 58.5707 11.44C57.6427 11.44 56.9067 11.72 56.3627 12.28C55.8347 12.824 55.5707 13.616 55.5707 14.656V22H52.2107V8.704H55.5707V10.312C56.0027 9.752 56.5547 9.312 57.2267 8.992C57.9147 8.672 58.6667 8.512 59.4827 8.512C60.5227 8.512 61.4507 8.736 62.2667 9.184C63.0827 9.616 63.7147 10.24 64.1627 11.056C64.5947 10.288 65.2187 9.672 66.0347 9.208C66.8667 8.744 67.7627 8.512 68.7227 8.512ZM76.4951 15.304C76.4951 13.96 76.7591 12.768 77.2871 11.728C77.8311 10.688 78.5591 9.888 79.4711 9.328C80.3991 8.768 81.4311 8.488 82.5671 8.488C83.5591 8.488 84.4231 8.688 85.1591 9.088C85.9111 9.488 86.5111 9.992 86.9591 10.6V8.704H90.3431V22H86.9591V20.056C86.5271 20.68 85.9271 21.2 85.1591 21.616C84.4071 22.016 83.5351 22.216 82.5431 22.216C81.4231 22.216 80.3991 21.928 79.4711 21.352C78.5591 20.776 77.8311 19.968 77.2871 18.928C76.7591 17.872 76.4951 16.664 76.4951 15.304ZM86.9591 15.352C86.9591 14.536 86.7991 13.84 86.4791 13.264C86.1591 12.672 85.7271 12.224 85.1831 11.92C84.6391 11.6 84.0551 11.44 83.4311 11.44C82.8071 11.44 82.2311 11.592 81.7031 11.896C81.1751 12.2 80.7431 12.648 80.4071 13.24C80.0871 13.816 79.9271 14.504 79.9271 15.304C79.9271 16.104 80.0871 16.808 80.4071 17.416C80.7431 18.008 81.1751 18.464 81.7031 18.784C82.2471 19.104 82.8231 19.264 83.4311 19.264C84.0551 19.264 84.6391 19.112 85.1831 18.808C85.7271 18.488 86.1591 18.04 86.4791 17.464C86.7991 16.872 86.9591 16.168 86.9591 15.352Z" fill="#00204C"/>
<path d="M104.928 18.808H98.256L97.152 22H93.624L99.648 5.224H103.56L109.584 22H106.032L104.928 18.808ZM104.016 16.12L101.592 9.112L99.168 16.12H104.016ZM115.196 10.624C115.628 10.016 116.22 9.512 116.972 9.112C117.74 8.696 118.612 8.488 119.588 8.488C120.724 8.488 121.748 8.768 122.66 9.328C123.588 9.888 124.316 10.688 124.844 11.728C125.388 12.752 125.66 13.944 125.66 15.304C125.66 16.664 125.388 17.872 124.844 18.928C124.316 19.968 123.588 20.776 122.66 21.352C121.748 21.928 120.724 22.216 119.588 22.216C118.612 22.216 117.748 22.016 116.996 21.616C116.26 21.216 115.66 20.712 115.196 20.104V28.336H111.836V8.704H115.196V10.624ZM122.228 15.304C122.228 14.504 122.06 13.816 121.724 13.24C121.404 12.648 120.972 12.2 120.428 11.896C119.9 11.592 119.324 11.44 118.7 11.44C118.092 11.44 117.516 11.6 116.972 11.92C116.444 12.224 116.012 12.672 115.676 13.264C115.356 13.856 115.196 14.552 115.196 15.352C115.196 16.152 115.356 16.848 115.676 17.44C116.012 18.032 116.444 18.488 116.972 18.808C117.516 19.112 118.092 19.264 118.7 19.264C119.324 19.264 119.9 19.104 120.428 18.784C120.972 18.464 121.404 18.008 121.724 17.416C122.06 16.824 122.228 16.12 122.228 15.304ZM131.461 10.624C131.893 10.016 132.485 9.512 133.237 9.112C134.005 8.696 134.877 8.488 135.853 8.488C136.989 8.488 138.013 8.768 138.925 9.328C139.853 9.888 140.581 10.688 141.109 11.728C141.653 12.752 141.925 13.944 141.925 15.304C141.925 16.664 141.653 17.872 141.109 18.928C140.581 19.968 139.853 20.776 138.925 21.352C138.013 21.928 136.989 22.216 135.853 22.216C134.877 22.216 134.013 22.016 133.261 21.616C132.525 21.216 131.925 20.712 131.461 20.104V28.336H128.101V8.704H131.461V10.624ZM138.493 15.304C138.493 14.504 138.325 13.816 137.989 13.24C137.669 12.648 137.237 12.2 136.693 11.896C136.165 11.592 135.589 11.44 134.965 11.44C134.357 11.44 133.781 11.6 133.237 11.92C132.709 12.224 132.277 12.672 131.941 13.264C131.621 13.856 131.461 14.552 131.461 15.352C131.461 16.152 131.621 16.848 131.941 17.44C132.277 18.032 132.709 18.488 133.237 18.808C133.781 19.112 134.357 19.264 134.965 19.264C135.589 19.264 136.165 19.104 136.693 18.784C137.237 18.464 137.669 18.008 137.989 17.416C138.325 16.824 138.493 16.12 138.493 15.304Z" fill="#31A592"/>
</svg>
