<svg width="320" height="499" viewBox="0 0 320 499" fill="none" xmlns="http://www.w3.org/2000/svg">
<path d="M291.541 449.424H5.64258V449.769H291.541V449.424Z" fill="#EBEBEB"/>
<path d="M263.12 472.939H244.421V473.283H263.12V472.939Z" fill="#EBEBEB"/>
<path d="M240.647 472.939H194.406V473.283H240.647V472.939Z" fill="#EBEBEB"/>
<path d="M63.7058 460.762H28.0378V461.107H63.7058V460.762Z" fill="#EBEBEB"/>
<path d="M153.599 460.762H68.8101V461.107H153.599V460.762Z" fill="#EBEBEB"/>
<path d="M267.13 388.201H40.045C38.2651 388.198 36.5589 387.371 35.3003 385.902C34.0417 384.432 33.3332 382.441 33.3301 380.363V7.76952C33.3486 5.70375 34.0639 3.72975 35.3209 2.27539C36.5778 0.821028 38.2752 0.00349805 40.045 0H267.13C268.897 0.00714425 270.59 0.826711 271.842 2.28106C273.095 3.73542 273.806 5.70737 273.821 7.76952V380.363C273.821 382.437 273.117 384.427 271.863 385.896C270.609 387.365 268.907 388.194 267.13 388.201ZM40.045 0.274542C38.343 0.278171 36.7116 1.06898 35.5082 2.47378C34.3047 3.87857 33.6272 5.78284 33.6241 7.76952V380.363C33.6272 382.35 34.3047 384.254 35.5082 385.659C36.7116 387.064 38.343 387.855 40.045 387.858H267.13C268.832 387.855 270.463 387.064 271.667 385.659C272.87 384.254 273.548 382.35 273.551 380.363V7.76952C273.548 5.78284 272.87 3.87857 271.667 2.47378C270.463 1.06898 268.832 0.278171 267.13 0.274542H40.045Z" fill="#EBEBEB"/>
<path d="M272.456 276.792H228.65V449.424H272.456V276.792Z" fill="#E6E6E6"/>
<path d="M265.176 449.423H272.455V433.884H257.52L265.176 449.423Z" fill="#F0F0F0"/>
<path d="M94.1391 276.792H50.3333V449.424H94.1391V276.792Z" fill="#E6E6E6"/>
<path d="M272.467 276.792H87.7888V443.453H272.467V276.792Z" fill="#4B1206"/>
<path d="M268.251 284.628H92.9373V331.465H268.251V284.628Z" fill="#4E2219"/>
<path d="M188.313 298.385H171.931C164.875 298.385 158.019 292.743 153.115 282.791H207.105C202.225 292.743 195.428 298.385 188.313 298.385Z" fill="#F0F0F0"/>
<path d="M95.08 449.423H87.7888V433.884H102.724L95.08 449.423Z" fill="#F0F0F0"/>
<path d="M266.811 337.274H93.4453V382.985H266.811V337.274Z" fill="#4E2219"/>
<path d="M188.313 351.413H171.931C164.875 351.413 158.019 345.785 153.115 335.819H207.105C202.225 345.84 195.428 351.413 188.313 351.413Z" fill="#F0F0F0"/>
<path d="M266.811 390.371H93.4453V436.082H266.811V390.371Z" fill="#4E2219"/>
<path d="M188.313 404.564H171.931C164.875 404.564 158.019 398.922 153.115 388.97H207.105C202.225 398.922 195.428 404.564 188.313 404.564Z" fill="#F0F0F0"/>
<path d="M244.763 52.918H55.5918V160.099H244.763V52.918Z" fill="#F0F0F0"/>
<path d="M251.583 52.918H58.7788V160.099H251.583V52.918Z" fill="#F5F5F5"/>
<path d="M242.046 151.19V61.8403L68.3281 61.8403V151.19H242.046Z" fill="white"/>
<path d="M216.998 238.934C220.409 197.752 222.773 130.792 220.938 108.417C220.903 108.033 220.799 107.662 220.633 107.329C220.466 106.995 220.242 106.706 219.974 106.481C219.618 106.177 219.196 105.996 218.756 105.958C218.316 105.921 217.876 106.029 217.486 106.269C217.096 106.51 216.772 106.873 216.551 107.318C216.329 107.764 216.22 108.273 216.234 108.787C216.552 119.879 216.928 147.594 214.905 195.405C213.894 219.194 212.447 235.488 213.447 238.934H216.998Z" fill="#217037"/>
<path d="M226.772 150.257C234.557 138.561 250.668 129.309 267.179 127.895C273.659 127.332 247.622 142.418 236.897 157.491C228.583 169.186 219.257 188.459 216.152 198.974C217.975 177.271 218.975 161.979 226.772 150.257Z" fill="#02AB31"/>
<path d="M210.46 147.73C202.405 134.635 183.801 124.545 163.668 123.406C155.765 122.967 185.835 139.412 197.054 156.269C205.768 169.351 214.694 191.039 217.164 202.941C217.763 178.259 218.528 160.84 210.46 147.73Z" fill="#02AB31"/>
<path d="M226.23 111.711C232.381 101.951 245.963 93.9344 260.334 92.3009C265.979 91.6557 244.035 104.655 235.521 117.312C228.9 127.085 221.867 143.077 219.75 151.739C220.103 133.99 220.092 121.471 226.23 111.711Z" fill="#02AB31"/>
<path d="M213.847 113.715C207.015 102.61 191.268 94.0853 174.216 93.1244C167.525 92.7538 193.032 106.673 202.44 120.949C209.825 132.027 217.399 150.394 219.48 160.469C220.021 139.549 220.668 124.806 213.847 113.715Z" fill="#02AB31"/>
<path d="M222.103 194.293C226.548 186.935 236.532 180.744 247.198 179.261C251.385 178.685 235.25 188.774 229.088 198.287C224.302 205.672 219.28 217.67 217.822 224.135C217.834 210.943 217.669 201.65 222.103 194.293Z" fill="#02AB31"/>
<path d="M213.988 190.147C210.131 182.845 200.582 176.681 189.939 175.199C185.753 174.622 201.182 184.656 206.603 194.087C210.801 201.417 214.835 213.305 215.776 219.729C216.928 206.661 217.893 197.45 213.988 190.147Z" fill="#02AB31"/>
<path d="M215.552 276.792C224.054 276.792 231.075 274.719 231.557 264.822L232.98 236.174H198.135L199.558 264.822C200.04 274.719 207.061 276.792 215.552 276.792Z" fill="#00132E"/>
<path d="M198.335 242.694H232.804C233.478 242.692 234.128 242.4 234.63 241.873C235.131 241.346 235.448 240.622 235.52 239.839L236.049 234.348C236.091 233.901 236.051 233.448 235.933 233.02C235.814 232.592 235.62 232.197 235.363 231.862C235.106 231.527 234.791 231.258 234.439 231.074C234.088 230.89 233.707 230.794 233.321 230.793H197.818C197.432 230.794 197.051 230.89 196.7 231.074C196.348 231.258 196.033 231.527 195.776 231.862C195.519 232.197 195.325 232.592 195.206 233.02C195.088 233.448 195.048 233.901 195.089 234.348L195.607 239.839C195.682 240.623 196.002 241.347 196.505 241.874C197.008 242.4 197.659 242.692 198.335 242.694Z" fill="#00132E"/>
<path d="M72.9802 276.793H49.8718L56.7161 217.67H72.9802V276.793Z" fill="#E6E6E6"/>
<path d="M106.896 276.793H63.1019L54.9404 207.595H98.7463L106.896 276.793Z" fill="#F0F0F0"/>
<path d="M112.741 276.793H67.1709L59.0212 207.595H104.591L112.741 276.793Z" fill="#F5F5F5"/>
<path d="M71.1925 271.343L64.3247 213.044H100.557L107.425 271.343H71.1925Z" fill="white"/>
<path d="M91.6199 257.891H82.9881C82.2371 257.892 81.511 257.576 80.9445 257.001C80.378 256.425 80.0094 255.63 79.907 254.761L77.061 230.615C76.998 230.102 77.0305 229.579 77.1564 229.081C77.2822 228.584 77.4983 228.124 77.7901 227.732C78.0854 227.345 78.4476 227.034 78.8529 226.821C79.2583 226.608 79.6976 226.498 80.1421 226.497H88.774C89.5243 226.498 90.249 226.816 90.815 227.391C91.381 227.966 91.7503 228.76 91.8551 229.627L94.701 253.773C94.7615 254.286 94.727 254.809 94.5999 255.305C94.4727 255.802 94.2558 256.26 93.9638 256.651C93.6717 257.041 93.3114 257.354 92.9071 257.568C92.5028 257.782 92.0638 257.892 91.6199 257.891ZM81.0359 254.569C81.101 255.109 81.3307 255.603 81.6828 255.961C82.0349 256.319 82.4858 256.517 82.9528 256.518H91.5846C91.8606 256.519 92.1337 256.451 92.3852 256.319C92.6368 256.186 92.861 255.992 93.0428 255.749C93.2236 255.504 93.3579 255.218 93.437 254.908C93.516 254.598 93.538 254.272 93.5015 253.951L90.6556 229.819C90.5905 229.279 90.3608 228.785 90.0087 228.427C89.6566 228.069 89.2057 227.871 88.7387 227.87H80.1069C79.8306 227.867 79.5571 227.934 79.3053 228.067C79.0535 228.2 78.8294 228.395 78.6486 228.638C78.4641 228.878 78.3273 229.162 78.248 229.471C78.1687 229.779 78.1489 230.104 78.19 230.423L81.0359 254.569Z" fill="#F5F5F5"/>
<path d="M160 499C248.366 499 320 492.043 320 483.461C320 474.879 248.366 467.922 160 467.922C71.6344 467.922 0 474.879 0 483.461C0 492.043 71.6344 499 160 499Z" fill="#E6E6E6"/>
<path d="M200.068 200.235C195.707 192.427 196.717 185.608 200.068 180.704C204.246 174.55 211.07 174.598 215.619 177.742C222.741 182.656 224.275 204.187 212.378 207.226C208.157 205.276 204.044 202.94 200.068 200.235Z" fill="#263238"/>
<path d="M214.231 179.099C218.592 175.704 217.378 169.117 221.317 165.636C226.796 160.827 238.606 162.914 234.914 174.935C231.222 186.955 244.361 187.648 240.546 199.591C236.731 211.535 225.648 218.824 222.799 201.514C220.67 188.542 229.718 171.829 222.414 173.627C217.858 174.742 216.339 180.945 216.339 180.945L214.231 179.099Z" fill="#263238"/>
<path d="M203.396 230.008C202.8 232.191 202.154 234.172 201.463 236.22C200.773 238.268 200.01 240.24 199.21 242.211C197.601 246.348 195.58 250.181 193.2 253.606C192.52 254.566 191.773 255.438 190.969 256.212C190.175 256.959 189.328 257.603 188.44 258.136C186.806 259.104 185.101 259.851 183.353 260.367C180.042 261.379 176.651 261.866 173.252 261.819C172.87 261.811 172.504 261.62 172.221 261.282C171.938 260.943 171.757 260.481 171.712 259.98C171.667 259.479 171.76 258.973 171.975 258.556C172.19 258.139 172.512 257.839 172.881 257.713H172.954C175.994 256.772 178.987 255.58 181.914 254.145C183.291 253.466 184.623 252.64 185.897 251.674C186.464 251.243 187.004 250.751 187.51 250.202C188 249.66 188.452 249.062 188.862 248.414C189.798 246.95 190.641 245.387 191.384 243.74C192.168 242.038 192.924 240.278 193.622 238.441C195.003 234.806 196.311 230.921 197.437 227.19V227.133C197.736 226.096 198.334 225.259 199.099 224.805C199.864 224.351 200.734 224.319 201.518 224.714C202.301 225.109 202.934 225.9 203.277 226.913C203.619 227.926 203.644 229.077 203.345 230.114L203.396 230.008Z" fill="#B55B52"/>
<path d="M202.451 222.892C196.449 223.796 193.142 235.711 193.142 235.711L199.29 247.173C199.29 247.173 206.557 236.278 207.19 231.412C207.822 226.402 206.884 222.209 202.451 222.892Z" fill="#263238"/>
<path opacity="0.2" d="M199.167 230.181C201.18 228.508 203.374 229.431 205.242 232.537C205.628 233.428 205.887 234.406 206.005 235.422C204.188 239.778 199.283 247.164 199.283 247.164L196.47 241.923C196.26 238.826 197.866 231.21 199.167 230.181Z" fill="black"/>
<path d="M174.349 258.136L169.821 254.905L169.698 262.713C169.698 262.713 172.721 263.579 174.719 261.444L174.349 258.136Z" fill="#B55B52"/>
<path d="M165.279 255.174L166.071 261.55L169.727 262.713L169.85 254.905L165.279 255.174Z" fill="#B55B52"/>
<path d="M188.099 241.124L184.131 236.815L157.097 290.561L161.101 294.87C165.665 299.812 175.41 291.792 182.903 276.945C190.395 262.097 192.663 246.066 188.099 241.124Z" fill="#31A592"/>
<path opacity="0.1" d="M188.099 241.124L184.131 236.815L157.097 290.561L161.101 294.87C165.665 299.812 175.41 291.792 182.903 276.945C190.395 262.097 192.663 246.066 188.099 241.124Z" fill="#31A592"/>
<path d="M179.584 271.197C186.796 256.113 188.628 240.523 183.676 236.378C178.724 232.232 168.863 241.1 161.651 256.185C154.439 271.269 152.606 286.859 157.558 291.004C162.51 295.15 172.371 286.282 179.584 271.197Z" fill="#31A592"/>
<path d="M165.599 272.502L169.232 265.252C168.863 263.765 168.845 262.165 169.181 260.665C169.597 258.773 170.243 256.984 171.093 255.366C171.859 253.731 172.862 252.313 174.043 251.192C175.053 250.308 175.918 250.096 176.623 250.558L177.51 248.808L178.28 249.644L177.408 251.404C177.645 251.894 177.803 252.443 177.873 253.017C177.943 253.591 177.923 254.177 177.815 254.741C177.532 256.438 177.041 258.062 176.361 259.549L174.726 258.664C175.235 257.639 175.489 256.428 175.453 255.203L172.045 261.934C172.514 263.459 172.61 265.141 172.321 266.742C171.395 270.586 169.624 273.978 167.234 276.484C166.129 277.496 165.148 277.788 164.291 277.359L163.411 279.109L162.641 278.272L163.477 276.609C163.216 276.037 163.049 275.399 162.985 274.737C162.921 274.075 162.963 273.402 163.106 272.762C163.499 270.618 164.147 268.57 165.025 266.694L166.696 267.752C166.326 268.616 166.028 269.532 165.809 270.483C165.651 271.135 165.58 271.818 165.599 272.502ZM174.741 254.289C174.336 254.341 173.954 254.564 173.651 254.924C172.808 255.846 172.184 257.072 171.856 258.453C171.706 259.04 171.663 259.667 171.732 260.28L174.741 254.289ZM166.253 273.522C166.476 273.567 166.704 273.545 166.92 273.459C167.137 273.372 167.336 273.223 167.503 273.022C168.542 271.951 169.304 270.479 169.683 268.81C169.828 268.141 169.815 267.43 169.646 266.771L166.253 273.522Z" fill="white"/>
<path opacity="0.1" d="M182.939 254.654C183.477 249.942 182.939 246.163 181.253 244.307C177.539 240.278 169.625 246.817 163.513 258.905C160.944 263.884 159.048 269.415 157.91 275.253C158.535 269.733 160.607 262.934 163.884 256.405C169.967 244.317 177.91 237.787 181.623 241.807C183.629 243.971 183.992 248.788 182.939 254.654Z" fill="black"/>
<path d="M235.626 433.933L229.522 434.702L226.411 415.883L232.516 415.114L235.626 433.933Z" fill="#B55B52"/>
<path d="M269.629 422.296L263.954 425.239L258.481 407.391L264.157 404.448L269.629 422.296Z" fill="#B55B52"/>
<path d="M262.304 421.547L268.525 417.45C268.632 417.38 268.755 417.363 268.871 417.402C268.986 417.44 269.088 417.533 269.157 417.662L272.311 423.711C272.391 423.867 272.444 424.045 272.468 424.231C272.491 424.418 272.484 424.609 272.447 424.791C272.41 424.973 272.343 425.143 272.252 425.289C272.161 425.434 272.047 425.552 271.919 425.634C269.738 427.019 268.779 427.701 266.039 429.48C264.353 430.586 260.596 433.192 258.271 434.721C255.945 436.25 254.681 433.289 255.546 432.375C259.419 428.288 260.698 425.201 261.548 422.614C261.698 422.152 261.965 421.775 262.304 421.547Z" fill="#263238"/>
<path d="M228.33 430.51H235.67C235.801 430.51 235.928 430.568 236.032 430.674C236.136 430.78 236.21 430.928 236.244 431.096L237.843 438.789C237.883 438.971 237.89 439.162 237.863 439.348C237.837 439.534 237.778 439.709 237.691 439.859C237.604 440.009 237.491 440.129 237.362 440.211C237.233 440.292 237.091 440.332 236.949 440.328C234.383 440.27 233.155 440.328 229.928 440.328H220.074C217.393 440.328 216.804 436.731 217.894 436.414C222.872 434.952 225.743 432.943 227.276 431.029C227.563 430.681 227.941 430.495 228.33 430.51Z" fill="#263238"/>
<path opacity="0.2" d="M226.418 415.893L228.017 425.586H234.253L232.523 415.114L226.418 415.893Z" fill="black"/>
<path opacity="0.2" d="M264.157 404.459L258.481 407.402L261.308 416.595L266.977 413.652L264.157 404.459Z" fill="black"/>
<path d="M221.085 214.766C225.939 214.026 229.078 217.084 229.296 223.498C229.936 246.106 231.825 251.309 234.682 263.002L210.474 271.917C201.87 247.26 198.847 235.634 197.888 230.162C197.688 228.891 197.809 227.567 198.231 226.395C198.654 225.223 199.355 224.266 200.228 223.671C206.671 218.922 213.758 215.896 221.085 214.766Z" fill="#263238"/>
<path d="M213.723 199.61C214.013 204.543 214.98 213.073 218.083 215.333C218.083 215.333 217.625 218.381 209.602 228.546C204.653 223.026 207.182 219.323 207.182 219.323C210.867 216.621 210.002 213.102 208.548 209.707L213.723 199.61Z" fill="#B55B52"/>
<path opacity="0.2" d="M213.163 200.716C213.693 203.519 213.767 206.44 213.381 209.284C213.105 211.207 211.521 212.669 209.748 213.506C209.506 212.17 209.109 210.891 208.57 209.717L213.163 200.716Z" fill="black"/>
<path d="M215.147 190.292C216.331 198.264 216.964 201.601 214.769 206.64C211.462 214.256 203.803 214.448 200.838 207.101C198.171 200.495 196.674 188.57 201.862 183.435C203.003 182.297 204.346 181.565 205.761 181.306C207.177 181.048 208.619 181.274 209.95 181.961C211.281 182.648 212.457 183.774 213.367 185.232C214.277 186.69 214.889 188.432 215.147 190.292Z" fill="#B55B52"/>
<path d="M218.294 195.148C218.382 195.917 218.355 196.701 218.213 197.456C218.07 198.21 217.816 198.92 217.465 199.543C216.521 201.207 215.096 200.399 214.559 198.581C214.079 196.927 213.984 194.062 215.322 193.062C215.614 192.849 215.942 192.737 216.276 192.733C216.609 192.73 216.938 192.837 217.233 193.044C217.528 193.251 217.779 193.552 217.964 193.919C218.15 194.286 218.263 194.709 218.294 195.148Z" fill="#B55B52"/>
<path d="M209.864 186.07C209.639 189.119 211.485 194.331 214.951 195.542C218.541 190.08 216.172 182.589 212.873 182.435C209.573 182.281 209.864 186.07 209.864 186.07Z" fill="#263238"/>
<path d="M205.024 177.762C199.726 178.079 194.043 181.205 196.013 192.187C200.635 190.908 213.497 189.004 214.486 184.638C213.185 179.031 208.498 177.55 205.024 177.762Z" fill="#263238"/>
<path d="M210.474 271.916C210.474 271.916 209.064 336.615 212.996 361.031C217.073 386.437 226.28 422.749 226.28 422.749L234.928 422.008C234.928 422.008 229.34 374.532 227.661 354.944C225.292 327.941 228.235 265.367 228.235 265.367L210.474 271.916Z" fill="#407BFF"/>
<path opacity="0.2" d="M222.654 292.149C223.047 286.283 226.39 287.408 227.138 295.351C226.811 307.852 226.579 322.363 226.767 335.067C223.163 325.748 221.76 305.496 222.654 292.149Z" fill="black"/>
<path d="M236.026 422.749L225.612 423.681L224.166 417.219L235.437 415.642L236.026 422.749Z" fill="#263238"/>
<path d="M219.013 268.771C219.013 268.771 226.382 323.008 236.389 352.193C244.47 375.763 259.114 413.738 259.114 413.738L267.057 409.805C267.057 409.805 254.637 366.695 250.146 350.116C238.962 308.766 245.059 283.667 234.681 263.001L219.013 268.771Z" fill="#407BFF"/>
<path d="M267.994 410.805L258.83 415.026L256.221 408.814L267.13 405.237L267.994 410.805Z" fill="#263238"/>
<path d="M234.645 261.021L236.346 263.492C236.476 263.685 236.346 263.983 236.04 264.079L210.656 273.436C210.438 273.513 210.227 273.436 210.176 273.263L209.355 270.474C209.297 270.281 209.45 270.041 209.689 269.954L234.202 260.925C234.275 260.887 234.355 260.876 234.433 260.893C234.511 260.91 234.584 260.954 234.645 261.021Z" fill="#263238"/>
<path d="M232.116 265.828L232.777 265.578C232.908 265.53 232.988 265.405 232.952 265.299L231.862 261.693C231.862 261.588 231.702 261.539 231.571 261.588L230.91 261.828C230.779 261.828 230.699 262.001 230.728 262.107L231.825 265.723C231.855 265.828 231.985 265.876 232.116 265.828Z" fill="#407BFF"/>
<path d="M212.567 273.022L213.229 272.781C213.352 272.781 213.439 272.608 213.403 272.503L212.313 268.896C212.313 268.791 212.146 268.743 212.015 268.791L211.361 269.031C211.23 269.031 211.15 269.204 211.179 269.31L212.269 272.926C212.306 273.031 212.437 273.07 212.567 273.022Z" fill="#407BFF"/>
<path d="M222.342 269.425L223.003 269.185C223.134 269.137 223.214 269.012 223.178 268.906L222.087 265.29C222.087 265.184 221.92 265.136 221.789 265.184L221.135 265.425C221.005 265.425 220.925 265.607 220.954 265.713L222.051 269.319C222.08 269.425 222.211 269.473 222.342 269.425Z" fill="#407BFF"/>
<path d="M206.586 195.629C206.71 196.273 206.586 196.879 206.245 196.985C205.903 197.091 205.569 196.667 205.445 196.023C205.322 195.379 205.445 194.783 205.787 194.667C206.129 194.552 206.463 194.965 206.586 195.629Z" fill="#263238"/>
<path d="M201.128 197.495C201.259 198.13 201.128 198.735 200.787 198.851C200.445 198.966 200.111 198.524 199.987 197.889C199.864 197.255 199.987 196.639 200.329 196.533C200.671 196.427 201.005 196.851 201.128 197.495Z" fill="#263238"/>
<path d="M200.474 196.523L199.231 196.475C199.231 196.475 200.06 197.477 200.474 196.523Z" fill="#263238"/>
<path d="M202.793 198.091C202.65 199.697 202.342 201.269 201.877 202.764C202.169 202.912 202.481 202.973 202.793 202.943C203.104 202.913 203.407 202.793 203.679 202.591L202.793 198.091Z" fill="#A02724"/>
<path d="M205.816 204.524C205.788 204.518 205.762 204.501 205.741 204.475C205.721 204.45 205.706 204.416 205.699 204.38C205.694 204.356 205.692 204.331 205.695 204.306C205.697 204.281 205.703 204.257 205.712 204.235C205.722 204.214 205.735 204.195 205.75 204.18C205.765 204.165 205.783 204.155 205.801 204.149C206.405 203.96 206.967 203.584 207.441 203.053C207.915 202.521 208.286 201.849 208.526 201.091C208.532 201.066 208.542 201.043 208.554 201.023C208.567 201.003 208.583 200.987 208.601 200.975C208.618 200.963 208.638 200.956 208.657 200.955C208.677 200.953 208.697 200.957 208.715 200.966C208.751 200.984 208.78 201.018 208.798 201.062C208.815 201.107 208.819 201.158 208.81 201.207C208.559 202.026 208.165 202.754 207.66 203.331C207.154 203.908 206.552 204.317 205.903 204.524C205.874 204.536 205.844 204.536 205.816 204.524Z" fill="#263238"/>
<path d="M207.655 192.744C207.603 192.735 207.555 192.705 207.517 192.657C207.235 192.345 206.9 192.126 206.541 192.019C206.182 191.912 205.809 191.92 205.453 192.042C205.379 192.072 205.298 192.063 205.229 192.017C205.16 191.97 205.107 191.889 205.082 191.792C205.069 191.744 205.062 191.693 205.064 191.642C205.066 191.591 205.076 191.541 205.093 191.495C205.11 191.449 205.134 191.408 205.163 191.375C205.193 191.341 205.227 191.316 205.264 191.301C205.713 191.14 206.186 191.124 206.641 191.254C207.096 191.385 207.521 191.658 207.88 192.051C207.929 192.106 207.963 192.18 207.977 192.262C207.992 192.344 207.986 192.43 207.961 192.508C207.936 192.585 207.892 192.65 207.837 192.693C207.782 192.735 207.718 192.753 207.655 192.744Z" fill="#263238"/>
<path d="M197.88 195.033H197.822C197.786 195.016 197.752 194.991 197.723 194.957C197.694 194.924 197.671 194.883 197.654 194.838C197.637 194.792 197.627 194.742 197.625 194.692C197.622 194.641 197.628 194.59 197.64 194.542C197.782 193.955 198.028 193.421 198.358 192.986C198.688 192.551 199.093 192.227 199.537 192.042C199.574 192.029 199.613 192.026 199.651 192.033C199.689 192.04 199.726 192.057 199.759 192.083C199.792 192.109 199.821 192.143 199.844 192.184C199.867 192.225 199.884 192.271 199.893 192.321C199.911 192.422 199.898 192.527 199.857 192.615C199.816 192.704 199.751 192.767 199.675 192.792C199.33 192.948 199.018 193.211 198.765 193.559C198.512 193.907 198.326 194.33 198.222 194.792C198.197 194.881 198.149 194.954 198.086 194.999C198.023 195.043 197.949 195.055 197.88 195.033Z" fill="#263238"/>
<path d="M226.324 229.902C224.434 235.056 222.472 240.114 220.401 245.144C219.369 247.663 218.337 250.183 217.24 252.664C216.143 255.145 215.06 257.635 213.759 260.126C213.461 260.742 213.09 261.395 212.741 262.049L212.611 262.28L212.545 262.405L212.436 262.588C212.284 262.838 212.131 263.049 211.978 263.261C211.701 263.634 211.402 263.978 211.085 264.29C210.038 265.303 208.901 266.139 207.698 266.781C205.576 267.915 203.389 268.821 201.158 269.492C196.886 270.799 192.548 271.696 188.178 272.175L187.684 268.079C189.712 267.367 191.776 266.617 193.803 265.838C195.831 265.059 197.844 264.232 199.806 263.328C201.716 262.477 203.583 261.462 205.394 260.29C206.158 259.791 206.877 259.182 207.538 258.472C207.646 258.353 207.746 258.221 207.836 258.078C207.862 258.035 207.887 257.99 207.909 257.943L208.069 257.616C208.323 257.087 208.585 256.587 208.846 255.991C209.878 253.693 210.896 251.231 211.884 248.769L214.827 241.297L220.641 226.219L226.324 229.902Z" fill="#B55B52"/>
<path d="M189.675 268.118L185.395 265.944L185.758 273.936C185.758 273.936 189.123 273.936 190.678 271.195L189.675 268.118Z" fill="#B55B52"/>
<path d="M182.03 266.175L181.115 272.051L185.758 273.936L185.395 265.944L182.03 266.175Z" fill="#B55B52"/>
<path d="M221.055 218.9C218.664 220.352 215.888 233.498 215.888 233.498L226.244 235.056C226.244 235.056 228.25 228.671 227.843 225.391C227.232 220.151 223.78 217.246 221.055 218.9Z" fill="#263238"/>
<path d="M259.209 423.893C259.169 423.802 259.137 423.705 259.114 423.604C259.081 423.497 259.07 423.379 259.082 423.264C259.095 423.149 259.131 423.04 259.187 422.95C259.688 422.142 261.912 422.469 262.159 422.508C262.188 422.511 262.215 422.525 262.237 422.549C262.259 422.573 262.275 422.606 262.283 422.642C262.292 422.678 262.293 422.716 262.285 422.753C262.277 422.789 262.261 422.821 262.239 422.844C261.607 423.546 260.43 424.672 259.674 424.383C259.574 424.349 259.482 424.288 259.402 424.204C259.321 424.119 259.256 424.013 259.209 423.893ZM261.774 422.844C260.88 422.748 259.681 422.768 259.412 423.191C259.392 423.236 259.381 423.287 259.381 423.34C259.381 423.392 259.392 423.444 259.412 423.489C259.433 423.611 259.478 423.723 259.542 423.816C259.605 423.909 259.686 423.978 259.775 424.018C260.175 424.171 260.916 423.739 261.789 422.844H261.774Z" fill="#407BFF"/>
<path d="M259.753 421.239C259.725 421.169 259.703 421.095 259.688 421.018C259.658 420.87 259.666 420.712 259.712 420.57C259.759 420.429 259.84 420.312 259.942 420.239C260.037 420.158 260.144 420.104 260.255 420.083C260.367 420.061 260.481 420.072 260.589 420.114C261.454 420.422 262.253 422.528 262.29 422.615C262.302 422.644 262.309 422.677 262.309 422.711C262.309 422.745 262.302 422.778 262.29 422.807C262.275 422.835 262.255 422.857 262.232 422.872C262.21 422.887 262.184 422.895 262.159 422.893C261.234 422.737 260.382 422.151 259.753 421.239ZM261.868 422.403C261.57 421.711 261.018 420.663 260.509 420.48C260.442 420.451 260.372 420.443 260.302 420.457C260.233 420.47 260.167 420.504 260.109 420.557C259.949 420.691 259.949 420.816 259.971 420.903C260.08 421.461 261.156 422.24 261.89 422.442L261.868 422.403Z" fill="#407BFF"/>
<path d="M225.052 432.106C224.544 432.161 224.036 432.003 223.599 431.654C223.484 431.544 223.39 431.4 223.326 431.233C223.261 431.065 223.228 430.88 223.228 430.692C223.218 430.591 223.23 430.487 223.262 430.394C223.294 430.3 223.345 430.22 223.41 430.164C224.071 429.567 226.571 431.068 227.044 431.375C227.072 431.393 227.096 431.422 227.111 431.458C227.127 431.494 227.134 431.536 227.131 431.577C227.127 431.617 227.113 431.654 227.092 431.684C227.072 431.713 227.044 431.733 227.014 431.741C226.372 431.953 225.714 432.076 225.052 432.106ZM223.882 430.433C223.781 430.425 223.68 430.455 223.592 430.519C223.592 430.519 223.533 430.587 223.541 430.702C223.543 430.828 223.567 430.952 223.611 431.064C223.655 431.176 223.718 431.272 223.795 431.346C224.224 431.779 225.249 431.837 226.557 431.51C225.719 430.974 224.825 430.61 223.904 430.433H223.882Z" fill="#407BFF"/>
<path d="M227.051 431.779H226.993C226.164 431.336 224.493 429.557 224.587 428.644C224.587 428.442 224.711 428.192 225.089 428.134C226.542 427.903 227.167 431.413 227.196 431.557C227.2 431.593 227.198 431.629 227.189 431.662C227.18 431.696 227.165 431.726 227.145 431.75C227.117 431.773 227.084 431.783 227.051 431.779ZM225.227 428.49H225.125C224.972 428.49 224.892 428.576 224.878 428.672C224.827 429.201 225.982 430.596 226.825 431.211C226.629 430.375 226.106 428.49 225.227 428.49Z" fill="#407BFF"/>
<path d="M205.932 194.667H204.682C204.682 194.667 205.518 195.631 205.932 194.667Z" fill="#263238"/>
<path d="M208.788 440.337H248.554C248.828 440.337 249.091 440.481 249.284 440.737C249.478 440.993 249.586 441.341 249.586 441.703V446.146H207.763V441.703C207.763 441.342 207.871 440.997 208.063 440.741C208.255 440.485 208.516 440.34 208.788 440.337Z" fill="#263238"/>
<path d="M249.943 460.85H208.12V466.648H249.943V460.85Z" fill="#263238"/>
<path opacity="0.5" d="M249.943 460.85H222.291V466.648H249.943V460.85Z" fill="black"/>
<path d="M226.317 446.136L221.615 485.082C221.575 485.403 221.452 485.694 221.266 485.905C221.079 486.117 220.843 486.234 220.598 486.236H218.294C218.145 486.236 217.998 486.193 217.863 486.11C217.728 486.028 217.608 485.907 217.511 485.758C217.414 485.608 217.343 485.432 217.303 485.242C217.262 485.053 217.253 484.854 217.276 484.659L221.935 446.098L226.317 446.136Z" fill="#263238"/>
<path opacity="0.5" d="M226.317 446.136L225.961 449.098H221.571L221.935 446.136H226.317Z" fill="black"/>
<path d="M212.146 446.136L207.444 485.082C207.404 485.403 207.281 485.694 207.094 485.905C206.908 486.117 206.672 486.234 206.426 486.236H204.123C203.974 486.236 203.827 486.193 203.692 486.11C203.557 486.028 203.437 485.907 203.34 485.758C203.243 485.608 203.172 485.432 203.132 485.242C203.091 485.053 203.082 484.854 203.105 484.659L207.764 446.098L212.146 446.136Z" fill="#263238"/>
<path d="M254.237 484.697L249.586 446.136H245.226L249.906 485.082C249.944 485.403 250.068 485.696 250.254 485.907C250.441 486.119 250.678 486.235 250.924 486.236H253.22C253.366 486.235 253.51 486.193 253.643 486.112C253.776 486.032 253.894 485.915 253.99 485.77C254.087 485.624 254.158 485.454 254.201 485.269C254.244 485.084 254.256 484.889 254.237 484.697Z" fill="#263238"/>
<path opacity="0.5" d="M249.943 449.098L249.586 446.136H245.197L245.553 449.098H249.943Z" fill="black"/>
<path d="M240.067 484.697L235.416 446.136H231.055L235.735 485.082C235.773 485.403 235.897 485.696 236.083 485.907C236.27 486.119 236.507 486.235 236.753 486.236H239.049C239.195 486.235 239.339 486.193 239.472 486.112C239.605 486.032 239.723 485.915 239.82 485.77C239.916 485.624 239.987 485.454 240.03 485.269C240.073 485.084 240.085 484.889 240.067 484.697Z" fill="#263238"/>
<path opacity="0.5" d="M240.067 484.697L235.416 446.136H231.055L235.735 485.082C235.773 485.403 235.897 485.696 236.083 485.907C236.27 486.119 236.507 486.235 236.753 486.236H239.049C239.195 486.235 239.339 486.193 239.472 486.112C239.605 486.032 239.723 485.915 239.82 485.77C239.916 485.624 239.987 485.454 240.03 485.269C240.073 485.084 240.085 484.889 240.067 484.697Z" fill="black"/>
<path opacity="0.5" d="M221.935 440.337H248.555C248.828 440.337 249.091 440.481 249.284 440.737C249.478 440.993 249.587 441.341 249.587 441.703V446.146H221.971V440.376L221.935 440.337Z" fill="black"/>
<path d="M111.97 484.029L117.501 472.821L97.7165 453.676L96.1697 484.029H111.97Z" fill="#31A592"/>
<path opacity="0.1" d="M111.97 484.029L117.501 472.821L97.7165 453.676L96.1697 484.029H111.97Z" fill="black"/>
<path d="M180.155 356.312C191.253 347.925 200.547 348.787 203.634 351.234C206.721 353.681 196.915 372.27 196.915 372.27C193.248 371.094 189.853 369.06 186.961 366.306C184.069 363.553 181.748 360.144 180.155 356.312Z" fill="#31A592"/>
<path opacity="0.2" d="M185.438 364.737C191.688 357.959 198.061 355.786 199.788 356.922C201.514 358.058 195.969 371.126 195.969 371.126C195.969 371.126 188.476 372.316 185.438 364.737Z" fill="black"/>
<path d="M83.7329 382.602L83.1045 382.251C84.8394 378.481 86.8803 374.893 89.2021 371.531L89.7615 372.003C87.469 375.33 85.4514 378.877 83.7329 382.602Z" fill="#31A592"/>
<path d="M80.4457 391.217L79.7551 390.965C80.28 389.265 80.8738 387.565 81.523 385.918L82.1721 386.231C81.5506 387.847 80.9636 389.524 80.4457 391.217Z" fill="#31A592"/>
<path d="M209.566 412.375C209.566 450.23 183.753 480.911 146.491 480.911C109.228 480.911 79.0232 450.23 79.0232 412.375C79.0232 374.519 109.228 343.838 146.491 343.838C183.753 343.838 209.566 374.519 209.566 412.375Z" fill="#31A592"/>
<path opacity="0.1" d="M137.5 473.653L134.8 479.89C136.752 480.24 138.733 480.495 140.745 480.652L137.5 473.653Z" fill="black"/>
<path d="M133.412 488.231L141.173 472.822L116.348 462.803L113.171 488.231H133.412Z" fill="#31A592"/>
<path d="M169.569 488.231L162.843 472.822L186.481 462.803L188.048 488.231H169.569Z" fill="#31A592"/>
<path opacity="0.2" d="M186.55 422.279C186.55 432.527 178.346 440.83 168.257 440.83C158.168 440.83 149.999 432.527 149.999 422.279C149.999 412.032 158.175 403.729 168.257 403.729C178.339 403.729 186.55 412.032 186.55 422.279Z" fill="black"/>
<path opacity="0.2" d="M162.194 428.348C163.906 428.348 165.294 425.494 165.294 421.974C165.294 418.453 163.906 415.6 162.194 415.6C160.481 415.6 159.093 418.453 159.093 421.974C159.093 425.494 160.481 428.348 162.194 428.348Z" fill="black"/>
<path opacity="0.4" d="M140.02 387.679C140.911 390.676 140.089 393.947 138.19 394.976C136.291 396.005 134.047 394.404 133.135 391.408C132.224 388.411 133.059 385.14 134.958 384.111C136.857 383.082 139.129 384.675 140.02 387.679Z" fill="black"/>
<path opacity="0.4" d="M188.083 387.816C187.392 390.813 188.242 394.046 189.954 395.029C191.667 396.013 193.601 394.381 194.277 391.377C194.954 388.373 194.119 385.148 192.406 384.164C190.693 383.181 188.774 384.812 188.083 387.816Z" fill="black"/>
<path opacity="0.2" d="M178.691 428.348C180.404 428.348 181.792 425.494 181.792 421.974C181.792 418.453 180.404 415.6 178.691 415.6C176.979 415.6 175.591 418.453 175.591 421.974C175.591 425.494 176.979 428.348 178.691 428.348Z" fill="black"/>
<path d="M126.769 355.687C114.746 344.693 103.98 343.839 100.265 345.836C96.5498 347.834 106.211 369.388 106.211 369.388C106.211 369.388 119.4 368.534 126.769 355.687Z" fill="#31A592"/>
<path opacity="0.2" d="M120.001 363.601C113.406 355.214 106.28 351.722 104.201 352.591C102.122 353.46 107.391 368.343 107.391 368.343C107.391 368.343 115.885 371.042 120.001 363.601Z" fill="black"/>
<path opacity="0.4" d="M151.048 349.8H161.206C161.206 349.8 158.997 347.117 151.497 346.301C147.25 345.92 142.976 346.176 138.791 347.063C138.791 347.063 147.161 346.857 151.048 349.8Z" fill="black"/>
</svg>
